<svg xmlns="http://www.w3.org/2000/svg" shape-rendering="geometricPrecision" text-rendering="geometricPrecision" image-rendering="optimizeQuality" fill-rule="evenodd" clip-rule="evenodd" viewBox="0 0 512 512"><circle fill="#FFD337" transform="matrix(1.93594 -1.93594 1.93594 1.93594 256 256)" r="93.504"/><path fill="#40270E" fill-rule="nonzero" d="M424.758 310.492c-2.024 73.87-45.255 121.084-100.242 142.047-22.039 8.402-46.035 12.505-69.998 12.343-23.939-.164-47.87-4.609-69.807-13.309-54.533-21.627-96.81-69.124-97.488-142.057-.055-7.23 5.759-13.138 12.989-13.193a13.12 13.12 0 014.102.623c50.751 16.302 102.197 24.597 153.291 24.627 50.567.027 100.878-8.027 149.925-24.396 6.859-2.294 14.285 1.406 16.58 8.266.561 1.676.762 3.387.648 5.049z"/><path fill="#F2F4F3" d="M392.651 380.279c-55.901 95.858-218.875 94.801-273.91-.092a900.04 900.04 0 0062.605 6.921A993.945 993.945 0 00256 389.905c25.29 0 50.163-.956 74.384-2.777a898.33 898.33 0 0062.267-6.849zM411.687 309.6c-.516 21.16-4.726 39.928-11.786 56.341-44.483 6.977-93.041 10.821-143.901 10.821-51.066 0-99.81-3.879-144.439-10.908-6.998-16.468-11.052-35.273-11.248-56.44 103.541 33.279 210.106 33.987 311.374.186z"/><path fill="#40270E" d="M165.364 114.887c3.053-.263 5.943-.206 8.561.335 2.677.554 5.064 1.615 7.051 3.346 4.855 4.219 5.441 7.544 3.506 10.239-1.775 2.471-5.816 4.22-10.537 5.591-4.125 1.199-7.535 2.115-10.582 2.935-12.728 3.42-19.198 5.163-34.777 15.626a149.456 149.456 0 00-11.64 8.668 147.773 147.773 0 00-10.702 9.738c-.718.72-1.763 1.959-2.997 3.432-1.339 1.602-2.916 3.477-4.6 5.312-4.656 5.072-9.986 9.542-13.297 6.502-5.163-4.723 3.857-18.385 7.292-23.581l.571-.864c8.879-13.595 19.317-24.368 31.325-32.258 12.02-7.903 25.61-12.925 40.782-15.014l.044-.007zm233.064 141.345c-28.059-21.84-54.859-21.512-80.409-.241-11.519 9.591-16.645 4.237-11.442-8.792 5.176-12.956 11.67-23.981 19.893-32.479 34.722-35.885 66.454-3.825 81.648 31.843 4.851 11.392 2.327 19.024-9.69 9.669zm-202.983 0c-28.056-21.84-54.856-21.512-80.409-.241-11.519 9.591-16.642 4.237-11.442-8.792 5.176-12.956 11.67-23.981 19.893-32.479 34.722-35.885 66.457-3.825 81.648 31.843 4.853 11.392 2.33 19.024-9.69 9.669zm151.11-140.401c-5.956-.514-11.184.206-14.909 3.45-8.129 7.065-3.268 10.972 4.718 13.607 19.049 6.29 23.875 4.559 42.68 16.215 10.013 6.203 19.146 13.4 27.381 21.596 3.579 3.557 14.831 19.583 19.587 15.217 4.873-4.453-5.322-19.111-8.014-23.236-17.618-26.976-41.373-42.704-71.443-46.849z"/></svg>