<svg xmlns="http://www.w3.org/2000/svg" shape-rendering="geometricPrecision" text-rendering="geometricPrecision" image-rendering="optimizeQuality" fill-rule="evenodd" clip-rule="evenodd" viewBox="0 0 512 512.002"><circle fill="#FBD433" transform="matrix(2.6439 -.70843 .70843 2.64391 256 256.001)" r="93.504"/><path fill="#40270E" d="M167.949 177.506c18.836 0 34.105 19.331 34.105 43.177 0 23.847-15.269 43.177-34.105 43.177-18.834 0-34.103-19.33-34.103-43.177 0-23.846 15.269-43.177 34.103-43.177zm176.101 0c18.836 0 34.104 19.331 34.104 43.177 0 23.847-15.268 43.177-34.104 43.177s-34.105-19.33-34.105-43.177c0-23.846 15.269-43.177 34.105-43.177z"/><path fill="#89611B" d="M159.909 193.989c6.585 0 11.923 5.636 11.923 12.59 0 6.952-5.338 12.588-11.923 12.588-6.586 0-11.923-5.636-11.923-12.588 0-6.954 5.337-12.59 11.923-12.59zm176.1 0c6.584 0 11.923 5.636 11.923 12.59 0 6.952-5.339 12.588-11.923 12.588-6.585 0-11.923-5.636-11.923-12.588 0-6.954 5.338-12.59 11.923-12.59z"/></svg>