<svg version="1.1" xmlns="http://www.w3.org/2000/svg" viewBox="0 0 300 401.0453806740605" width="300" height="401.0453806740605">
  <!-- svg-source:excalidraw -->
  
  <defs>
    <style class="style-fonts">
      @font-face {
        font-family: "Virgil";
        src: url("https://excalidraw.com/Virgil.woff2");
      }
      @font-face {
        font-family: "Cascadia";
        src: url("https://excalidraw.com/Cascadia.woff2");
      }
      @font-face {
        font-family: "Assistant";
        src: url("https://excalidraw.com/Assistant-Regular.woff2");
      }
    </style>
    
  </defs>
  <rect x="0" y="0" width="300" height="401.0453806740605" fill="#ffffff"></rect><g stroke-opacity="0.9" fill-opacity="0.9" stroke-linecap="round" transform="translate(106 86.35638685811313) rotate(0 37.5 37.5)"><path d="M53.16 2.71 C59.91 4.99, 67.53 12.38, 71 18.9 C74.47 25.42, 75.05 34.45, 73.99 41.81 C72.94 49.16, 69.64 57.53, 64.67 63.02 C59.7 68.51, 51.3 73.37, 44.16 74.74 C37.01 76.1, 28.44 74.36, 21.81 71.2 C15.19 68.04, 8.07 62.15, 4.38 55.77 C0.7 49.39, -1.28 40.33, -0.27 32.92 C0.74 25.51, 5.34 16.65, 10.44 11.3 C15.54 5.96, 22.1 1.64, 30.33 0.86 C38.56 0.08, 54.21 4.64, 59.84 6.64 C65.46 8.65, 64.43 12.3, 64.09 12.87 M24.25 3.68 C30.5 0.73, 40.61 -0.22, 47.83 1.55 C55.04 3.33, 62.82 8.53, 67.55 14.34 C72.29 20.14, 76.02 29.38, 76.23 36.37 C76.43 43.37, 73.13 50.31, 68.77 56.32 C64.41 62.33, 56.98 69.58, 50.07 72.45 C43.16 75.33, 34.33 75.26, 27.31 73.57 C20.29 71.88, 12.26 68.07, 7.95 62.32 C3.64 56.57, 1.94 46.41, 1.47 39.04 C0.99 31.68, 1.56 24.22, 5.11 18.14 C8.66 12.06, 19.85 4.93, 22.74 2.56 C25.63 0.2, 21.89 3.47, 22.43 3.95" stroke="#1e1e1e" stroke-width="2" fill="none"></path></g><g stroke-opacity="0.9" fill-opacity="0.9" stroke-linecap="round" transform="translate(130 165.35638685811313) rotate(0 14.5 51)"><path d="M7.25 0 C11.97 -0.91, 15.38 -0.37, 21.75 0 M7.25 0 C9.89 -0.15, 13.41 0.01, 21.75 0 M21.75 0 C25.66 0.84, 29.39 1.87, 29 7.25 M21.75 0 C25.89 0.29, 27.72 2.48, 29 7.25 M29 7.25 C28.84 37.55, 27.76 66, 29 94.75 M29 7.25 C28.84 41.8, 29.41 74.93, 29 94.75 M29 94.75 C30.3 101.16, 27.14 103.7, 21.75 102 M29 94.75 C30.36 101.6, 28.76 101.24, 21.75 102 M21.75 102 C17.47 101.73, 14.45 102.76, 7.25 102 M21.75 102 C16.34 101.56, 10.31 101.28, 7.25 102 M7.25 102 C3.15 103.48, -0.92 97.66, 0 94.75 M7.25 102 C3.77 102.59, -1.86 101.31, 0 94.75 M0 94.75 C1.39 70.82, -1.84 47.49, 0 7.25 M0 94.75 C-1.27 65.3, 0.43 38.22, 0 7.25 M0 7.25 C1.4 2.86, 4.2 -0.4, 7.25 0 M0 7.25 C0.71 0.28, 3.05 0.22, 7.25 0" stroke="#1e1e1e" stroke-width="2" fill="none"></path></g><g stroke-linecap="round"><g stroke-opacity="0.9" fill-opacity="0.9" transform="translate(167 205.35638685811313) rotate(0 46.5 -9)"><path d="M1.05 -0.7 C16.65 -3.82, 78.85 -15.52, 94.01 -18.26 M0.14 1.54 C15.64 -1.44, 77.88 -13.42, 93.59 -16.86" stroke="#1e1e1e" stroke-width="2" fill="none"></path></g></g><mask></mask><g stroke-linecap="round"><g stroke-opacity="0.9" fill-opacity="0.9" transform="translate(260 184.35638685811313) rotate(0 2.5 -37.5)"><path d="M-0.7 1.01 C0.01 -11.83, 3.65 -63.22, 4.74 -75.98 M1.13 0.5 C1.62 -11.71, 2.93 -62.46, 3.65 -74.96" stroke="#1e1e1e" stroke-width="2" fill="none"></path></g></g><mask></mask><g stroke-linecap="round"><g stroke-opacity="0.9" fill-opacity="0.9" transform="translate(124 209.35638685811313) rotate(0 -44 -21.5)"><path d="M1.01 -0.26 C-13.99 -7.17, -74.05 -34.91, -88.98 -42.18 M0.08 -1.44 C-14.65 -8.63, -71.84 -36.94, -86.78 -43.87" stroke="#1e1e1e" stroke-width="2" fill="none"></path></g></g><mask></mask><g stroke-linecap="round"><g stroke-opacity="0.9" fill-opacity="0.9" transform="translate(30 160.35638685811313) rotate(0 -1 -32)"><path d="M-0.26 -0.98 C-0.34 -11.91, -0.74 -53.98, -1.18 -64.54 M1.8 1.12 C1.7 -9.13, -1.32 -52.56, -1.7 -63.29" stroke="#1e1e1e" stroke-width="1" fill="none"></path></g></g><mask></mask><g stroke-opacity="0.9" fill-opacity="0.9" stroke-linecap="round" transform="translate(254 74.35638685811313) rotate(0 18 21.5)"><path d="M23.75 5.5 C27.52 9.19, 28.52 13.62, 31.25 16.5 M23.75 5.5 C26.1 8.71, 27.71 11.43, 31.25 16.5 M31.25 16.5 C36.25 20.89, 36.05 22.69, 31.25 27.5 M31.25 16.5 C34.63 21.88, 36.41 23.18, 31.25 27.5 M31.25 27.5 C30.14 30.21, 26.35 34.04, 23.75 37.5 M31.25 27.5 C29.68 30.53, 27.62 33.54, 23.75 37.5 M23.75 37.5 C20.75 44.89, 18.34 41.52, 14.25 37.5 M23.75 37.5 C16.84 43.24, 17.4 42.55, 14.25 37.5 M14.25 37.5 C10.92 34.53, 10.01 31.91, 4.75 27.5 M14.25 37.5 C12.09 34.31, 8.15 32.13, 4.75 27.5 M4.75 27.5 C0.51 20.38, 1.51 21.22, 4.75 16.5 M4.75 27.5 C0.86 21.51, 1.97 20.73, 4.75 16.5 M4.75 16.5 C7.82 13.73, 8 10.41, 14.25 5.5 M4.75 16.5 C8.56 12.75, 11.99 8, 14.25 5.5 M14.25 5.5 C17.14 0.55, 19.19 -0.51, 23.75 5.5 M14.25 5.5 C18.74 -1.42, 18.62 1.51, 23.75 5.5" stroke="#1e1e1e" stroke-width="1" fill="none"></path></g><g stroke-opacity="0.9" fill-opacity="0.9" stroke-linecap="round" transform="translate(10 50.356386858113126) rotate(0 20 24.5)"><path d="M26.25 6.25 C27.83 8.57, 30.43 12.8, 34.75 18.75 M26.25 6.25 C28.82 9.66, 30.93 13.61, 34.75 18.75 M34.75 18.75 C38.89 25.05, 40.69 23.81, 34.75 31.25 M34.75 18.75 C39.88 25.41, 41.18 24.17, 34.75 31.25 M34.75 31.25 C32.22 33.78, 30.95 38.17, 26.25 42.75 M34.75 31.25 C32.06 35.94, 29.32 39.97, 26.25 42.75 M26.25 42.75 C22.89 48.34, 19.52 47.12, 15.75 42.75 M26.25 42.75 C21.24 47.4, 20.55 47.81, 15.75 42.75 M15.75 42.75 C11.3 39.23, 7.46 34.45, 5.25 31.25 M15.75 42.75 C13.15 39.67, 11.78 38.22, 5.25 31.25 M5.25 31.25 C-1.62 26.51, -0.78 25.75, 5.25 18.75 M5.25 31.25 C-0.49 26.97, -1.27 23.26, 5.25 18.75 M5.25 18.75 C7.21 14.7, 8.56 14.73, 15.75 6.25 M5.25 18.75 C9.9 13.79, 13.43 8.42, 15.75 6.25 M15.75 6.25 C21.55 0.19, 20.49 -0.22, 26.25 6.25 M15.75 6.25 C19.58 -0.38, 22.51 0.18, 26.25 6.25" stroke="#1e1e1e" stroke-width="1" fill="none"></path></g><g stroke-opacity="0.9" fill-opacity="0.9" stroke-linecap="round" transform="translate(116 257.3563868581131) rotate(0 29.5 35.5)"><path d="M14.75 0 C19.74 -0.46, 27.17 -0.02, 44.25 0 M14.75 0 C21.96 -0.36, 29.84 -0.61, 44.25 0 M44.25 0 C54.14 0.69, 57.81 4.82, 59 14.75 M44.25 0 C54.5 1.18, 58.17 5.15, 59 14.75 M59 14.75 C57.76 32.6, 58.9 47.59, 59 56.25 M59 14.75 C60.18 30.49, 60.2 46, 59 56.25 M59 56.25 C58.34 64.6, 52.2 71.21, 44.25 71 M59 56.25 C57.4 65.63, 52.9 72.18, 44.25 71 M44.25 71 C33.45 69.84, 20.93 69.06, 14.75 71 M44.25 71 C33.35 71.45, 24.63 70.06, 14.75 71 M14.75 71 C6.42 70.22, 0.75 65.66, 0 56.25 M14.75 71 C6.89 69.73, -1.74 64.23, 0 56.25 M0 56.25 C-1.76 41.1, 1.63 30.69, 0 14.75 M0 56.25 C-0.29 41.21, -1.02 25.82, 0 14.75 M0 14.75 C0.19 4.41, 4.69 -1.24, 14.75 0 M0 14.75 C-0.38 6.42, 5.09 -0.13, 14.75 0" stroke="#1e1e1e" stroke-width="1" fill="none"></path></g><g stroke-linecap="round"><g stroke-opacity="0.9" fill-opacity="0.9" transform="translate(180 305.3563868581131) rotate(0 4 39)"><path d="M-0.87 -0.36 C0.28 12.72, 6.34 64.76, 7.72 77.91 M0.87 -1.59 C1.77 11.73, 5.71 66.39, 6.63 79.4" stroke="#1e1e1e" stroke-width="1" fill="none"></path></g></g><mask></mask><g stroke-linecap="round"><g stroke-opacity="0.6" fill-opacity="0.6" transform="translate(112 298.3563868581131) rotate(0 -6.5 46)"><path d="M-0.36 -0.28 C-2.45 15.11, -11.07 76.03, -13.09 91.44 M1.65 -1.47 C-0.56 14.15, -11.65 76.83, -14.09 92.69" stroke="#1e1e1e" stroke-width="1" fill="none"></path></g></g><mask></mask><g stroke-linecap="round"><g stroke-opacity="0.9" fill-opacity="0.9" transform="translate(77 97.35638685811313) rotate(0 1.5 -43)"><path d="M-0.28 -0.09 C0.27 -14.28, 1.86 -71.13, 2.44 -85.5 M1.78 -1.19 C2.2 -15.71, 1.07 -73.36, 1.2 -87.36" stroke="#2f9e44" stroke-width="1" fill="none"></path></g><g stroke-opacity="0.9" fill-opacity="0.9" transform="translate(77 97.35638685811313) rotate(0 1.5 -43)"><path d="M9.91 -63.92 C7.84 -70.2, 6.86 -74.21, 1.2 -87.36 M9.91 -63.92 C7.05 -70.28, 5.57 -77.29, 1.2 -87.36" stroke="#2f9e44" stroke-width="1" fill="none"></path></g><g stroke-opacity="0.9" fill-opacity="0.9" transform="translate(77 97.35638685811313) rotate(0 1.5 -43)"><path d="M-7.19 -63.81 C-5.37 -70.07, -2.47 -74.11, 1.2 -87.36 M-7.19 -63.81 C-5.39 -70.22, -2.2 -77.26, 1.2 -87.36" stroke="#2f9e44" stroke-width="1" fill="none"></path></g></g><mask></mask><g stroke-linecap="round"><g stroke-opacity="0.9" fill-opacity="0.9" transform="translate(228.17908144928515 99.96445648977533) rotate(0 1.5 -43)"><path d="M-0.09 -0.56 C0.55 -14.8, 3.04 -71.47, 3.5 -85.77 M-1.6 1.77 C-1.04 -12.84, 2.26 -73.27, 2.82 -87.77" stroke="#2f9e44" stroke-width="1" fill="none"></path></g><g stroke-opacity="0.9" fill-opacity="0.9" transform="translate(228.17908144928515 99.96445648977533) rotate(0 1.5 -43)"><path d="M10.24 -63.89 C7.36 -69.51, 6.68 -77.34, 2.82 -87.77 M10.24 -63.89 C8.24 -70.03, 5.61 -76.87, 2.82 -87.77" stroke="#2f9e44" stroke-width="1" fill="none"></path></g><g stroke-opacity="0.9" fill-opacity="0.9" transform="translate(228.17908144928515 99.96445648977533) rotate(0 1.5 -43)"><path d="M-6.84 -64.71 C-5.11 -70.09, -1.18 -77.7, 2.82 -87.77 M-6.84 -64.71 C-4.23 -70.53, -2.25 -77.15, 2.82 -87.77" stroke="#2f9e44" stroke-width="1" fill="none"></path></g></g><mask></mask><g stroke-linecap="round"><g stroke-opacity="0.9" fill-opacity="0.9" transform="translate(216 206.35638685811313) rotate(0 -1 32)"><path d="M-1.1 0.71 C-1.4 11.45, -2.71 52.77, -2.74 63.31 M0.53 0.04 C0.69 11.03, -0.06 53.61, -0.42 64.49" stroke="#2f9e44" stroke-width="2" fill="none"></path></g><g stroke-opacity="0.9" fill-opacity="0.9" transform="translate(216 206.35638685811313) rotate(0 -1 32)"><path d="M-8.41 40.8 C-5.65 44.97, -6.19 52.78, -0.42 64.49 M-8.41 40.8 C-6.35 47.06, -2.58 55.23, -0.42 64.49" stroke="#2f9e44" stroke-width="2" fill="none"></path></g><g stroke-opacity="0.9" fill-opacity="0.9" transform="translate(216 206.35638685811313) rotate(0 -1 32)"><path d="M8.68 41.2 C7.6 45.13, 3.22 52.85, -0.42 64.49 M8.68 41.2 C5.64 47.47, 4.32 55.52, -0.42 64.49" stroke="#2f9e44" stroke-width="2" fill="none"></path></g></g><mask></mask><g stroke-linecap="round"><g stroke-opacity="0.9" fill-opacity="0.9" transform="translate(87.09563711701685 205.0929612785764) rotate(0 -1 32)"><path d="M-0.19 -0.54 C-0.7 10.16, -2.44 53.1, -2.68 64.01 M-1.75 1.79 C-1.91 12.72, -0.25 55.34, -0.33 65.55" stroke="#2f9e44" stroke-width="2" fill="none"></path></g><g stroke-opacity="0.9" fill-opacity="0.9" transform="translate(87.09563711701685 205.0929612785764) rotate(0 -1 32)"><path d="M-9.32 42.23 C-7.27 48.86, -3.36 58.38, -0.33 65.55 M-9.32 42.23 C-6.72 51.45, -2.74 60.22, -0.33 65.55" stroke="#2f9e44" stroke-width="2" fill="none"></path></g><g stroke-opacity="0.9" fill-opacity="0.9" transform="translate(87.09563711701685 205.0929612785764) rotate(0 -1 32)"><path d="M7.78 41.9 C4.14 48.62, 2.36 58.25, -0.33 65.55 M7.78 41.9 C3.9 51.2, 1.41 60.09, -0.33 65.55" stroke="#2f9e44" stroke-width="2" fill="none"></path></g></g><mask></mask></svg>